<svg xmlns="http://www.w3.org/2000/svg" version="1.1" xmlns:xlink="http://www.w3.org/1999/xlink" xmlns:svgjs="http://svgjs.com/svgjs" id="Pattern1476SvgRootPreview" width="100%" height="100%"><defs><pattern x="0" y="0" width="1" height="1" patternUnits="userSpaceOnUse" id="Pattern1476Layer1" patternTransform="matrix(1.0238095238095237,0,0,1.0238095238095237,0,0)"><g id="PatternRootContent1"><g id="Pattern1476Layer1background"><rect width="1" height="1" id="Pattern1476Background1" class="color_1 fill_color_1" fill="#e4d8dc"></rect></g></g></pattern><pattern x="0" y="0" width="28" height="20" patternUnits="userSpaceOnUse" id="Pattern1476Layer2" patternTransform="matrix(1.5357142857142856,0,0,1.5357142857142856,0,0)"><g id="PatternRootContent2"><g id="Pattern1476Layer2Element2"><use xlink:href="#Pattern1476Element2" x="15.9296875" y="-22.070316314697266" transform="translate(28, -5) scale(1) translate(-28, 5) rotate(0, 28, -5)"></use><use xlink:href="#Pattern1476Element2" x="-12.0703125" y="-22.070316314697266" transform="translate(0, -5) scale(1) translate(0, 5) rotate(0, 0, -5)"></use><use xlink:href="#Pattern1476Element2" x="1.9296875" y="-12.070316314697266" transform="translate(14, 5) scale(1) translate(-14, -5) rotate(0, 14, 5)"></use><use xlink:href="#Pattern1476Element2" x="-26.0703125" y="-12.070316314697266" transform="translate(-14, 5) scale(1) translate(14, -5) rotate(0, -14, 5)"></use><use xlink:href="#Pattern1476Element2" x="1.9296875" y="-32.070316314697266" transform="translate(14, -15) scale(1) translate(-14, 15) rotate(0, 14, -15)"></use><use xlink:href="#Pattern1476Element2" x="15.9296875" y="-2.0703163146972656" transform="translate(28, 15) scale(1) translate(-28, -15) rotate(0, 28, 15)"></use><use xlink:href="#Pattern1476Element2" x="-12.0703125" y="-2.0703163146972656" transform="translate(0, 15) scale(1) translate(0, -15) rotate(0, 0, 15)"></use><use xlink:href="#Pattern1476Element2" x="1.9296875" y="7.929683685302734" transform="translate(14, 25) scale(1) translate(-14, -25) rotate(0, 14, 25)"></use><use xlink:href="#Pattern1476Element2" x="1.9296875" y="7.929683685302734" transform="translate(14, 25) scale(1) translate(-14, -25) rotate(0, 14, 25)"></use></g></g></pattern><symbol id="Pattern1476Element2"><g class="color_3 fill_color_3" fill="#cfc0c5"><path d="M12.07,2.071826934814453C9.511,2.072,6.951,3.048,4.999,4.999249458312988C3.048,6.951,2.072,9.511,2.072,12.070318222045898L4.066,12.070318222045898C4.059,10.027,4.844,7.983,6.413,6.413463115692139C7.976,4.851,10.027,4.059,12.07,4.065868377685547L12.07,2.071826934814453M22.069,12.070318222045898L20.075,12.070318222045898C20.082,14.114,19.29,16.164,17.727,17.727170944213867C16.157,19.297,14.114,20.082,12.07,20.074766159057617L12.07,22.06880760192871C14.63,22.069,17.19,21.093,19.141,19.141386032104492C21.093,17.19,22.069,14.63,22.069,12.070318222045898M12.07,6.074051856994629C10.529,6.074,8.994,6.661,7.828,7.827676773071289C6.661,8.994,6.074,10.529,6.074,12.070318222045898L8.068,12.070318222045898C8.068,11.052,8.457,10.027,9.242,9.241889953613281C10.027,8.457,11.052,8.068,12.07,8.068092346191406L12.07,6.074051856994629M18.067,12.070318222045898L16.073,12.070318222045898C16.073,13.089,15.684,14.114,14.899,14.898744583129883C14.114,15.684,13.089,16.073,12.07,16.072542190551758L12.07,18.06658363342285C13.612,18.067,15.146,17.48,16.313,16.312957763671875C17.48,15.146,18.067,13.612,18.067,12.070318222045898M13.485,10.656103134155273A2.000000134358852,2.000000134358852,0,0,0,10.656,10.656A2.000000134358852,2.000000134358852,0,0,0,10.656,13.485A2.000000134358852,2.000000134358852,0,0,0,13.485,13.485A2.000000134358852,2.000000134358852,0,0,0,13.485,10.656Z"></path><path d="M12.07,32.06880569458008C14.63,32.069,17.19,31.093,19.141,29.14138412475586C21.093,27.19,22.069,24.63,22.069,22.070314407348633L20.075,22.070314407348633C20.082,24.114,19.297,26.157,17.727,27.727169036865234C16.164,29.29,14.114,30.082,12.07,30.074764251708984L12.07,32.06880569458008M2.072,22.070314407348633L4.066,22.070314407348633C4.059,20.027,4.851,17.976,6.413,16.41345977783203C7.983,14.844,10.027,14.059,12.07,14.065866470336914L12.07,12.07182502746582C9.511,12.072,6.951,13.048,4.999,14.999246597290039C3.048,16.951,2.072,19.511,2.072,22.070314407348633M12.07,28.066579818725586C13.612,28.067,15.146,27.48,16.313,26.312955856323242C17.48,25.146,18.067,23.612,18.067,22.070314407348633L16.073,22.070314407348633C16.073,23.089,15.684,24.114,14.899,24.89874267578125C14.114,25.684,13.089,26.073,12.07,26.072540283203125L12.07,28.066579818725586M6.074,22.070314407348633L8.068,22.070314407348633C8.068,21.052,8.457,20.027,9.242,19.24188804626465C10.027,18.457,11.052,18.068,12.07,18.068090438842773L12.07,16.07404899597168C10.529,16.074,8.994,16.661,7.828,17.827674865722656C6.661,18.994,6.074,20.529,6.074,22.070314407348633M10.656,23.484529495239258A2.000000134358852,2.000000134358852,0,0,0,13.485,23.485A2.000000134358852,2.000000134358852,0,0,0,13.485,20.656A2.000000134358852,2.000000134358852,0,0,0,10.656,20.656A2.000000134358852,2.000000134358852,0,0,0,10.656,23.485Z"></path></g></symbol></defs><rect width="100%" height="100%" id="Pattern1476RctLayer1" fill="url(#Pattern1476Layer1)"></rect><rect width="100%" height="100%" id="Pattern1476RctLayer2" fill="url(#Pattern1476Layer2)"></rect></svg>